<?xml version="1.0" encoding="UTF-8" standalone="no"?>
<svg width="138px" height="63px" viewBox="0 0 138 63" version="1.1" xmlns="http://www.w3.org/2000/svg" xmlns:xlink="http://www.w3.org/1999/xlink">
    <!-- Generator: Sketch 40.3 (33839) - http://www.bohemiancoding.com/sketch -->
    <title>entrega</title>
    <desc>Created with Sketch.</desc>
    <defs>
        <path d="M3.24818605,0.704 C2.05265116,0.704 0.955953488,1.35980247 0.390604651,2.41224691 C-0.174744186,3.46311111 -0.117023256,4.73916049 0.544790698,5.73392593 L3.24818605,9.37165432 L5.97055814,5.73392593 C6.63316279,4.736 6.69009302,3.45362963 6.12,2.40276543 C5.55306977,1.35506173 4.45874419,0.704 3.26953488,0.704 L3.24818605,0.704 L3.24818605,0.704 Z" id="path-1"></path>
        <path d="M3.24818605,0.704 C2.05265116,0.704 0.955953488,1.35980247 0.390604651,2.41224691 C-0.174744186,3.46311111 -0.117023256,4.73916049 0.544790698,5.73392593 L3.24818605,9.37165432 L5.97055814,5.73392593 C6.63316279,4.736 6.69009302,3.45362963 6.12,2.40276543 C5.55386047,1.35506173 4.45874419,0.704 3.26953488,0.704 L3.24818605,0.704 L3.24818605,0.704 Z" id="path-3"></path>
    </defs>
    <g id="Welcome" stroke="none" stroke-width="1" fill="none" fill-rule="evenodd">
        <g id="Landing-Sellers" transform="translate(-1043.000000, -1308.000000)">
            <g id="Como-funciona" transform="translate(-9.000000, 1065.000000)">
                <g id="entrega" transform="translate(1053.000000, 243.000000)">
                    <g id="Group-14" transform="translate(28.465116, 30.219141)">
                        <mask id="mask-2" fill="white">
                            <use xlink:href="#path-1"></use>
                        </mask>
                        <g id="Clip-13"></g>
                        <polygon id="Fill-12" fill="#EDD045" mask="url(#mask-2)" points="-18.9712093 41.8765432 121.984093 41.8765432 121.984093 -31.7993086 -18.9712093 -31.7993086"></polygon>
                    </g>
                    <g id="Group-17" transform="translate(28.465116, 30.219141)">
                        <mask id="mask-4" fill="white">
                            <use xlink:href="#path-3"></use>
                        </mask>
                        <g id="Clip-16"></g>
                        <polygon id="Fill-15" fill="#EDD045" mask="url(#mask-4)" points="-1.34972093 10.726716 7.86586047 10.726716 7.86586047 -0.648691358 -1.34972093 -0.648691358"></polygon>
                    </g>
                    <path d="M31.7128279,30.9228247 C30.517293,30.9228247 29.421386,31.5786272 28.8560372,32.6310716 C28.2906884,33.6819358 28.3484093,34.9579852 29.0102233,35.9535407 L31.7128279,39.5912691 L34.4352,35.9535407 C35.0978047,34.9556148 35.1555256,33.6724543 34.5854326,32.6215901 C34.0153395,31.5675654 32.9107349,30.9149235 31.7128279,30.9228247" id="Fill-10" fill="#EDD045"></path>
                    <g id="Group-25" transform="translate(0.000000, 32.589511)" stroke-linecap="round">
                        <path d="M31.7236605,3.00152099 C30.9392884,3.00152099 30.3035674,2.36705185 30.3035674,1.58324938 C30.3035674,0.802607407 30.9392884,0.167348148 31.7236605,0.167348148 C32.5064512,0.167348148 33.1413814,0.802607407 33.1413814,1.58324938 C33.1413814,2.36705185 32.5064512,3.00152099 31.7236605,3.00152099 L31.7236605,3.00152099 Z" id="Stroke-18" stroke="#484848" stroke-width="1.351" stroke-linejoin="round"></path>
                        <g id="Group-24" opacity="0.6" transform="translate(0.000000, 29.234568)" stroke="#A5A4A4" stroke-width="2">
                            <path d="M9.31694884,0 L135.266391,0" id="Stroke-20" opacity="0.4"></path>
                            <path d="M6.44987907,0 L0.711786047,0" id="Stroke-22" opacity="0.396280317"></path>
                        </g>
                    </g>
                    <polyline id="Stroke-4" stroke="#484848" stroke-width="2" stroke-linecap="round" stroke-linejoin="round" points="111.244363 16.3704099 111.244363 61.3347556 22.5834326 61.3347556 22.5834326 51.8406321"></polyline>
                    <polygon id="Fill-6" fill="#EDD045" points="28.2603256 45.3089185 45.8066977 45.3089185 45.8066977 42.3854617 28.2603256 42.3854617"></polygon>
                    <polygon id="Fill-7" fill="#EDD045" points="28.2595349 49.7083259 38.8446047 49.7083259 38.8446047 46.7856593 28.2595349 46.7856593"></polygon>
                    <polygon id="Fill-8" fill="#EDD045" points="28.2595349 54.1077333 42.5980465 54.1077333 42.5980465 51.1858568 28.2595349 51.1858568"></polygon>
                    <polyline id="Stroke-9" stroke="#484848" stroke-width="2" stroke-linecap="round" stroke-linejoin="round" points="46.8349209 16.3704099 17.7427814 16.3704099 17.7427814 2.39786667 114.649898 2.39786667 114.649898 16.3704099 111.064874 16.3704099"></polyline>
                    <polygon id="Fill-1" fill="#EDD045" points="56.795814 38.7485235 77.3223256 38.7485235 77.3223256 0.365906173 56.795814 0.365906173"></polygon>
                    <polyline id="Stroke-5" stroke="#484848" stroke-width="2" stroke-linecap="round" stroke-linejoin="round" points="77.3223256 37.6859654 73.9017674 34.2671012 70.4812093 37.6859654 67.0598605 34.2671012 63.6385116 37.6859654 60.2171628 34.2671012 56.795814 37.6859654"></polyline>
                    <polygon id="Fill-2" fill="#AFAFAF" opacity="0.4" points="22.9737209 21.6992395 111.53186 21.6992395 111.53186 16.9584988 22.9737209 16.9584988"></polygon>
                </g>
            </g>
        </g>
    </g>
</svg>