<?xml version="1.0" encoding="UTF-8" standalone="no"?>
<svg width="137px" height="70px" viewBox="0 0 137 70" version="1.1" xmlns="http://www.w3.org/2000/svg" xmlns:xlink="http://www.w3.org/1999/xlink">
    <!-- Generator: Sketch 40.3 (33839) - http://www.bohemiancoding.com/sketch -->
    <title>vendes</title>
    <desc>Created with Sketch.</desc>
    <defs></defs>
    <g id="Welcome" stroke="none" stroke-width="1" fill="none" fill-rule="evenodd">
        <g id="Landing-Sellers" transform="translate(-430.000000, -1301.000000)">
            <g id="Como-funciona" transform="translate(-9.000000, 1065.000000)">
                <g id="vendes" transform="translate(440.000000, 237.000000)">
                    <path d="M101.48888,15.3227375 C101.48888,19.9628625 97.7193994,23.7262375 93.069789,23.7262375 C88.4210552,23.7262375 84.6506981,19.9628625 84.6506981,15.3227375 C84.6506981,10.6826125 88.4210552,6.9209875 93.069789,6.9209875 C97.7193994,6.9209875 101.48888,10.6826125 101.48888,15.3227375" id="Fill-1" fill="#EDD045"></path>
                    <path d="M33.5779188,11.0964 C33.5779188,12.457025 32.47425,13.5604 31.1119773,13.5604 C29.7479513,13.5604 28.6425292,12.457025 28.6425292,11.0964 C28.6425292,9.73665 29.7479513,8.63415 31.1119773,8.63415 C32.47425,8.63415 33.5779188,9.73665 33.5779188,11.0964" id="Fill-3" fill="#EDD045"></path>
                    <path d="M41.4170357,11.0964 C41.4170357,12.457025 40.310737,13.5604 38.946711,13.5604 C37.5844383,13.5604 36.4781396,12.457025 36.4781396,11.0964 C36.4781396,9.73665 37.5844383,8.63415 38.946711,8.63415 C40.310737,8.63415 41.4170357,9.73665 41.4170357,11.0964" id="Fill-5" fill="#EDD045"></path>
                    <path d="M33.5779188,18.5066 C33.5779188,19.868975 32.47425,20.9706 31.1119773,20.9706 C29.7479513,20.9706 28.6425292,19.868975 28.6425292,18.5066 C28.6425292,17.14685 29.7479513,16.04435 31.1119773,16.04435 C32.47425,16.04435 33.5779188,17.14685 33.5779188,18.5066" id="Fill-7" fill="#EDD045"></path>
                    <path d="M41.4170357,18.5066 C41.4170357,19.868975 40.310737,20.9706 38.946711,20.9706 C37.5844383,20.9706 36.4781396,19.868975 36.4781396,18.5066 C36.4781396,17.14685 37.5844383,16.04435 38.946711,16.04435 C40.310737,16.04435 41.4170357,17.14685 41.4170357,18.5066" id="Fill-9" fill="#EDD045"></path>
                    <polygon id="Fill-11" fill="#AFAFAF" opacity="0.4" points="27.3462662 57.541575 63.6630195 57.541575 63.6630195 52.863825 27.3462662 52.863825"></polygon>
                    <polygon id="Fill-13" fill="#AFAFAF" opacity="0.4" points="27.3462662 50.525825 53.9000649 50.525825 53.9000649 46.62595 27.3462662 46.62595"></polygon>
                    <path d="M112.848166,15.3227375 C112.848166,19.9628625 109.078685,23.7262375 104.429075,23.7262375 C99.7812175,23.7262375 96.0126136,19.9628625 96.0126136,15.3227375 C96.0126136,10.6826125 99.7812175,6.9209875 104.429075,6.9209875 C109.078685,6.9209875 112.848166,10.6826125 112.848166,15.3227375" id="Fill-15" fill="#AFAFAF" opacity="0.4"></path>
                    <path d="M62.1015779,67.2861 L22.4825844,67.2861 C20.9143052,67.2861 19.5669351,66.018225 19.5669351,64.45285" id="Stroke-17" stroke="#484848" stroke-width="2" stroke-linecap="round" stroke-linejoin="round"></path>
                    <path d="M45.3344026,35.3229625 C45.3344026,36.3703375 44.5130065,37.2715875 43.4961234,37.2715875 L30.1337532,37.2715875 C29.1168701,37.2715875 28.295474,36.3703375 28.295474,35.3229625 C28.295474,34.2755875 29.1168701,33.3725875 30.1337532,33.3725875 L43.4961234,33.3725875 C44.5130065,33.3725875 45.3344026,34.2755875 45.3344026,35.3229625 L45.3344026,35.3229625 Z" id="Stroke-19" stroke="#484848" stroke-width="2" stroke-linecap="round" stroke-linejoin="round"></path>
                    <path d="M49.7723084,35.3213 C49.7723084,34.275675 50.5937045,33.372675 51.6114643,33.372675 L64.9712045,33.372675 C65.9898409,33.372675 66.811237,34.275675 66.811237,35.3213 C66.811237,36.370425 65.9898409,37.271675 64.9712045,37.271675 L51.6114643,37.271675 C50.5937045,37.271675 49.7723084,36.370425 49.7723084,35.3213 L49.7723084,35.3213 Z" id="Stroke-21" stroke="#484848" stroke-width="2" stroke-linecap="round" stroke-linejoin="round"></path>
                    <path d="M88.2881591,35.3229625 C88.2881591,36.3703375 87.4641331,37.2715875 86.4490032,37.2715875 L73.0866331,37.2715875 C72.0715032,37.2715875 71.2483539,36.3703375 71.2483539,35.3229625 C71.2483539,34.2755875 72.0715032,33.3725875 73.0866331,33.3725875 L86.4490032,33.3725875 C87.4641331,33.3725875 88.2881591,34.2755875 88.2881591,35.3229625 L88.2881591,35.3229625 Z" id="Stroke-23" stroke="#484848" stroke-width="2" stroke-linecap="round" stroke-linejoin="round"></path>
                    <path d="M92.7251883,35.3213 C92.7251883,34.275675 93.5483377,33.372675 94.5625909,33.372675 L107.927591,33.372675 C108.942721,33.372675 109.764994,34.275675 109.764994,35.3213 C109.764994,36.370425 108.942721,37.271675 107.927591,37.271675 L94.5625909,37.271675 C93.5483377,37.271675 92.7251883,36.370425 92.7251883,35.3213 L92.7251883,35.3213 Z" id="Stroke-25" stroke="#484848" stroke-width="2" stroke-linecap="round" stroke-linejoin="round"></path>
                    <path d="M66.7877435,67 L105.840438,67" id="Stroke-27" stroke="#484848" stroke-width="2" stroke-linecap="round" stroke-linejoin="round"></path>
                    <path d="M115.914594,0.59045 C117.441672,0.59045 118.338458,1.718325 118.338458,3.282825 L118.338458,64.1172 C118.338458,65.6817 117.34086,67.091325 115.815536,67.091325" id="Stroke-29" stroke="#484848" stroke-width="2" stroke-linecap="round" stroke-linejoin="round"></path>
                    <path d="M22.5234351,67.1101375 C20.9981104,67.1101375 19.5341494,65.6812625 19.5341494,64.1167625 L19.5341494,3.2832625 C19.5341494,1.7187625 21.0209026,0.6302625 22.5435974,0.6302625 L96.0756429,0.6302625" id="Stroke-31" stroke="#484848" stroke-width="2" stroke-linecap="round" stroke-linejoin="round"></path>
                    <g id="Group-35" transform="translate(9.642857, 67.783450)" stroke="#A5A4A4" stroke-width="2" stroke-linecap="round" opacity="0.4">
                        <path d="M0.518785714,0 L124.673201,0" id="Stroke-33"></path>
                    </g>
                    <g id="Group-38" transform="translate(0.000000, 67.783450)" stroke="#A5A4A4" stroke-width="2" stroke-linecap="round" opacity="0.4">
                        <path d="M7.03779545,0 L0.789224026,0" id="Stroke-36"></path>
                    </g>
                </g>
            </g>
        </g>
    </g>
</svg>