<?xml version="1.0" encoding="UTF-8" standalone="no"?>
<svg width="111px" height="79px" viewBox="0 0 111 79" version="1.1" xmlns="http://www.w3.org/2000/svg" xmlns:xlink="http://www.w3.org/1999/xlink">
    <!-- Generator: Sketch 40.3 (33839) - http://www.bohemiancoding.com/sketch -->
    <title>Group</title>
    <desc>Created with Sketch.</desc>
    <defs></defs>
    <g id="Welcome" stroke="none" stroke-width="1" fill="none" fill-rule="evenodd">
        <g id="MLU-Desktop-Sellers" transform="translate(-583.000000, -160.000000)">
            <g id="HERO" transform="translate(-314.000000, 54.000000)">
                <g id="Group" transform="translate(897.000000, 106.000000)">
                    <path d="M110.613303,37.573913 C110.613303,17.2747826 85.8560303,0.773913043 55.3049394,0.773913043 C24.760697,0.773913043 0.0102727273,17.2747826 0.0102727273,37.573913 C0.00684848485,38.0678261 0,39.5043478 0,39.72 C0,61.1878261 21.6343636,78.586087 55.3015152,78.586087 C89.1638485,78.586087 110.609879,61.1947826 110.609879,39.72 C110.613303,38.9443478 110.613303,38.5234783 110.613303,37.573913 L110.613303,37.573913 Z" id="Shape" fill="#060E9F"></path>
                    <path d="M108.48,37.5530435 C108.48,56.6034783 84.6986364,72.0782609 55.3186364,72.0782609 C25.9454848,72.0782609 2.15042424,56.6034783 2.15042424,37.5530435 C2.15042424,18.4434783 25.9454848,2.96173913 55.3186364,2.96173913 C84.6952121,2.96173913 108.48,18.4434783 108.48,37.5530435 L108.48,37.5530435 Z" id="Shape" fill="#199BD8"></path>
                    <g transform="translate(0.000000, 12.913043)" id="Shape" fill="#FFFFFF">
                        <path d="M37.6666667,13.6973913 C37.629,13.7704348 37.0982424,14.3165217 37.4406667,14.8173913 C38.2761818,15.8643478 40.8854545,16.5008696 43.505,15.8991304 C45.0356364,15.5269565 47.0559394,13.9304348 49.0111818,12.3930435 C51.1102424,10.626087 53.1750606,8.97043478 55.2741212,8.2573913 C57.4827576,7.61043478 58.9003939,7.91652174 59.8420606,8.20173913 C60.8796061,8.52869565 62.0883636,9.13391304 64.0264848,10.626087 C67.6596061,13.4052174 82.2948182,26.4 84.8150606,28.6086957 C86.8559091,27.7043478 95.9198788,23.7773913 108.182091,21.0052174 C107.151394,14.3130435 103.14503,8.22608696 97.1252121,3.24173913 C88.6673333,6.84173913 78.3637879,8.74434783 68.2862424,3.73913043 C68.2348788,3.73913043 62.7766364,1.04347826 57.4245455,1.23130435 C49.4152424,1.37391304 45.9396364,4.93217391 42.2928182,8.62956522 L37.6666667,13.6973913 L37.6666667,13.6973913 Z"></path>
                        <path d="M84.2295152,30.08 C84.0548788,29.8678261 67.0398182,14.7826087 63.1875455,11.8191304 C60.9343939,10.0869565 59.6913939,9.71478261 58.3867576,9.47478261 C57.7190303,9.42608696 56.7705152,9.52347826 56.1267576,9.72521739 C54.3358788,10.2330435 52.0005455,11.8191304 49.9083333,13.4956522 C47.7236667,15.2278261 45.6965152,16.9113043 43.8097576,17.2869565 C41.3956667,17.8156522 38.4542424,17.2173913 37.1016667,16.3165217 C36.5606364,15.9373913 36.1908182,15.4608696 36.0127576,15.0852174 C35.5059697,13.9234783 36.4236667,12.973913 36.5606364,12.7617391 L41.2655455,7.62434783 C41.796303,7.02608696 42.3715758,6.49043478 42.9297273,5.96521739 C41.4093636,6.12869565 40.015697,6.54956522 38.646,6.97043478 C36.9544242,7.41913043 35.3073636,7.92695652 33.6568788,7.92695652 C32.9480606,7.92695652 29.2738485,7.31478261 28.5205152,7.0573913 C24.2881515,5.86782609 20.5625758,4.74086957 14.9776364,2.11826087 C8.32775758,7.14434783 3.83515152,13.4713043 2.55448485,20.4591304 C3.48930303,20.7026087 5.06445455,21.1165217 5.68766667,21.3217391 C20.8193939,24.706087 25.5311515,28.2643478 26.3872121,28.9426087 C27.3151818,27.9513043 28.6540606,27.266087 30.1538788,27.266087 C31.7940909,27.28 33.3110303,28.1078261 34.239,29.4817391 C35.0916364,28.7478261 36.286697,28.1565217 37.841303,28.1565217 C38.5398485,28.1565217 39.2829091,28.2991304 39.9985758,28.5773913 C41.7038485,29.1547826 42.5770303,30.3026087 43.0358788,31.293913 C43.5974545,31.0365217 44.3336667,30.8869565 45.1554848,30.893913 C45.9464848,30.893913 46.8128182,31.0365217 47.6551818,31.4365217 C50.4459394,32.6608696 50.8842424,35.4643478 50.637697,37.5721739 C50.8191818,37.5443478 51.0212121,37.5304348 51.2403636,37.5304348 C54.5242121,37.5304348 57.2259394,40.2678261 57.2190909,43.5756522 C57.2190909,44.6295652 56.9725455,45.6417391 56.5034242,46.4904348 C57.4142727,46.96 59.6948182,48.1147826 61.7322424,47.8678261 C63.3313636,47.6973913 63.9203333,47.1478261 64.1463333,46.8347826 C64.297,46.5704348 64.4545152,46.306087 64.3141212,46.1634783 L60.0338182,41.3391304 C60.0338182,41.3391304 59.3592424,40.64 59.5612727,40.3965217 C59.7838485,40.1391304 60.2563939,40.56 60.554303,40.7965217 C62.728697,42.6573913 65.3790606,45.3669565 65.3790606,45.3669565 C65.4167273,45.3947826 65.5947879,45.7669565 66.5741212,45.9721739 C67.4164848,46.1147826 68.9231515,45.9930435 69.9641212,45.1443478 C70.2038182,44.9530435 70.4572121,44.6956522 70.6969091,44.4173913 C70.6729394,44.4382609 70.6523939,44.466087 70.6455455,44.4730435 C71.7481515,42.9773913 70.525697,41.5582609 70.525697,41.5582609 L65.5502727,35.8852174 C65.5502727,35.8852174 64.8003636,35.186087 65.0674545,34.9356522 C65.2729091,34.7304348 65.7283333,35.0921739 66.0433636,35.3495652 C67.6287879,36.6886957 69.834,38.9634783 72.0049697,41.1026087 C72.4090303,41.4156522 74.2683939,42.5913043 76.7783636,40.88 C78.2781818,39.9408696 78.5829394,38.6852174 78.5452727,37.7356522 C78.4322727,36.5008696 77.4837576,35.6243478 77.4837576,35.6243478 L70.6969091,28.6608696 C70.6969091,28.6608696 69.9915152,28.0208696 70.2312121,27.6973913 C70.4092727,27.4469565 70.8920909,27.8678261 71.2002727,28.1113043 C73.3609697,29.9791304 79.2403939,35.4608696 79.2403939,35.4608696 C79.312303,35.4886957 81.3428788,36.9843478 83.8562727,35.3321739 C84.7397273,34.7617391 85.3321212,33.8921739 85.3732121,32.8243478 C85.4519697,31.0817391 84.2295152,30.08 84.2295152,30.08 L84.2295152,30.08 Z"></path>
                        <path d="M51.2369394,38.8313043 C50.1788485,38.7895652 49.0488485,39.4573913 48.8776364,39.3878261 C48.7783333,39.36 48.9255758,38.88 49.0522727,38.6608696 C49.1310303,38.4243478 50.524697,34.1565217 47.1278485,32.6956522 C44.5528182,31.5895652 42.9742424,32.7965217 42.4058182,33.3947826 C42.2654242,33.5443478 42.2140606,33.5373913 42.1969394,33.3808696 C42.1284545,32.56 41.796303,30.5008696 39.5808182,29.8017391 C36.3654545,28.8521739 34.2972121,31.0713043 33.7904242,31.9026087 C33.5370303,30.093913 32.0166667,28.6086957 30.1538788,28.6086957 C28.1061818,28.6086957 26.4146061,30.3269565 26.4146061,32.4069565 C26.4146061,34.4730435 28.1061818,36.1286957 30.1470303,36.1286957 C31.1195152,36.1286957 32.0303636,35.7947826 32.6809697,35.1304348 C32.7117879,35.1582609 32.7152121,35.2 32.7049394,35.2 C32.5542727,36.1426087 32.2734848,39.5617391 35.7764848,40.893913 C37.1530303,41.4921739 38.3583636,41.0921739 39.3342727,40.3513043 C39.6219091,40.173913 39.676697,40.2886957 39.6356061,40.5669565 C39.5157576,41.4295652 39.676697,43.2904348 42.2654242,44.3234783 C44.1898485,45.106087 45.3575152,44.2956522 46.1245455,43.5895652 C46.4601212,43.2904348 46.5388788,43.3113043 46.5525758,43.84 C46.6929697,46.2782609 48.7372424,48.3721739 51.2266667,48.3721739 C53.7982727,48.3721739 55.9007576,46.253913 55.9007576,43.5895652 C55.8973333,40.9565217 53.801697,38.8591304 51.2369394,38.8313043 L51.2369394,38.8313043 Z"></path>
                    </g>
                    <path d="M84.8835455,41.1808696 C79.6410303,36.4608696 67.5089394,25.786087 64.2113939,23.2469565 C62.3588788,21.8417391 61.0816364,21.1356522 59.9619091,20.7808696 C59.4448485,20.5686957 58.7668485,20.4330435 57.8662727,20.4330435 C57.0136364,20.4330435 56.1267576,20.5408696 55.1885152,20.8469565 C53.0483636,21.546087 50.9390303,23.2434783 48.8776364,24.9304348 L48.7920303,25.0382609 C46.8984242,26.533913 44.9192121,28.1165217 43.4467879,28.4608696 C42.7859091,28.6313043 42.0907879,28.666087 41.4470303,28.666087 C39.762303,28.666087 38.2556364,28.2104348 37.7009091,27.4313043 C37.629,27.3826087 37.6666667,27.1321739 37.9029394,26.84 L37.9303333,26.84 L42.5599091,21.7443478 C46.1656364,18.1443478 49.5898788,14.6313043 57.4348182,14.4956522 C57.5786364,14.4956522 57.7019091,14.4886957 57.8286061,14.4886957 C62.7184242,14.4956522 67.6322121,16.6486957 68.1629697,16.9478261 C72.7514545,19.2365217 77.4906061,20.3634783 82.2297576,20.3704348 C87.2017576,20.3704348 92.3175758,19.1147826 97.7210303,16.6486957 C97.1183636,16.0643478 96.4780303,15.6086957 95.810303,15.146087 C91.0848485,17.2330435 86.5990909,18.2243478 82.2331818,18.2243478 C77.8022121,18.2173913 73.3609697,17.1843478 69.0943636,15.0382609 C68.8478182,14.8817391 63.4512121,12.3356522 57.8251818,12.3356522 C57.6710909,12.3356522 57.530697,12.3356522 57.3766061,12.3426087 C50.7952121,12.4573913 47.0593636,14.8504348 44.5665152,16.9478261 C42.1216061,16.9895652 40.0225455,17.5878261 38.1700303,18.1443478 C36.485303,18.6208696 35.0471212,19.0486957 33.6705758,19.0486957 C33.095303,19.0486957 32.0406364,18.9930435 31.9413333,18.9930435 C30.3113939,18.9234783 22.2062121,16.92 15.7275455,14.3947826 C15.0872121,14.8504348 14.4434545,15.386087 13.8065455,15.8556522 C20.5625758,18.7217391 28.801303,20.8504348 31.3934545,21.0382609 C32.105697,21.1008696 32.8898485,21.1391304 33.6637273,21.1391304 C35.3621515,21.1391304 37.0811212,20.6626087 38.7316061,20.2347826 C39.7349091,19.9426087 40.793,19.6434783 41.9709394,19.3443478 C41.6524848,19.6434783 41.344303,19.9426087 41.0395455,20.2834783 L36.3654545,25.4521739 C35.9579697,25.8591304 35.1840909,26.8365217 35.7045758,28.0678261 C35.8997576,28.6313043 36.3517576,29.08 36.9544242,29.5217391 C38.0433333,30.2347826 40.0225455,30.7321739 41.9161515,30.7321739 C42.6181212,30.7321739 43.2721515,30.7321739 43.8816667,30.5478261 C45.8677273,30.133913 47.9291212,28.4295652 50.0863939,26.6765217 C51.8259091,25.3026087 54.3290303,23.5252174 56.2089394,22.9408696 C56.7362727,22.84 57.3937273,22.7113043 57.9005152,22.7113043 C58.0546061,22.7113043 58.208697,22.7113043 58.3353939,22.746087 C59.6057879,22.9443478 60.8316667,23.3373913 62.9752424,25.0347826 C66.8138182,27.9495652 83.8562727,43.0382609 84.0000909,43.24 C84.0206364,43.253913 85.1129697,44.2173913 85.0376364,45.7130435 C85.0205152,46.6104348 84.5137273,47.4521739 83.6816364,47.96 C82.9728182,48.4086957 82.2023636,48.7078261 81.4558788,48.7078261 C80.3190303,48.7078261 79.5280303,48.1095652 79.4698182,48.1095652 C79.4355758,48.0747826 73.576697,42.6278261 71.4468182,40.7878261 C71.0838485,40.5095652 70.7414242,40.2591304 70.4092727,40.2591304 C70.2449091,40.2591304 70.0771212,40.3217391 69.9915152,40.4434783 C69.6353939,40.9130435 69.9915152,41.4973913 70.4332424,41.8208696 L77.2714545,48.7913043 C77.2817273,48.7982609 78.1035455,49.6121739 78.2370909,50.6869565 C78.2507879,51.8208696 77.7234545,52.8191304 76.5968788,53.5078261 C75.7853333,54.106087 75.0046061,54.3982609 74.1827879,54.3982609 C73.1212727,54.3982609 72.3987576,53.8556522 72.2241212,53.8 L71.2550606,52.8017391 C69.4676061,51.0208696 67.6287879,49.146087 66.2796364,48.0191304 C65.9474848,47.7547826 65.5913636,47.5147826 65.2729091,47.5147826 C65.0948485,47.5147826 64.9647273,47.5147826 64.8003636,47.6573913 C64.6805152,47.813913 64.5538182,48.1130435 64.975,48.6973913 C65.0948485,48.8817391 65.2934545,49.0104348 65.2934545,49.0104348 L70.286,54.7043478 C70.299697,54.7530435 71.2961515,55.9391304 70.3784545,57.1008696 L70.2038182,57.4 C70.0497273,57.5356522 69.8956364,57.706087 69.7415455,57.8278261 C68.8923333,58.5686957 67.7520606,58.6034783 67.334303,58.6034783 C67.0672121,58.6034783 66.8377879,58.6034783 66.6254848,58.5965217 C66.1563636,58.4678261 65.8310606,58.2973913 65.6598485,58.133913 L65.5947879,58.04 C65.3311212,57.7617391 62.814303,55.1947826 60.7323636,53.4556522 C60.468697,53.2121739 60.1091515,52.9130435 59.7838485,52.9130435 C59.6092121,52.9130435 59.4414242,52.9408696 59.3421212,53.1182609 C58.9003939,53.5321739 59.5099091,54.2452174 59.7838485,54.4852174 L64.0504545,59.1982609 C64.0436061,59.2713043 63.9682727,59.4034783 63.8689697,59.5043478 C63.7285758,59.7895652 63.2080909,60.293913 61.6808788,60.4434783 C61.4788485,60.4782609 61.2802424,60.4921739 61.1261515,60.4921739 C59.5064848,60.4921739 57.8320303,59.7513043 56.965697,59.2295652 C57.3526364,58.3878261 57.5717879,57.4417391 57.5717879,56.5130435 C57.5717879,52.9547826 54.7193939,50.106087 51.2335152,50.0991304 C51.1479091,50.0991304 51.0931212,50.106087 50.9903939,50.106087 C51.1102424,48.453913 50.8876667,45.4243478 47.7955758,44.053913 C46.9052727,43.626087 46.0115455,43.4695652 45.1554848,43.4695652 C44.4466667,43.4695652 43.8166061,43.6191304 43.2105152,43.8486957 C42.5564848,42.5513043 41.4983939,41.6191304 40.101303,41.1843478 C39.337697,40.92 38.5740909,40.7356522 37.8378788,40.7356522 C36.5435152,40.7356522 35.3450303,41.1495652 34.2972121,41.8765217 C33.2665152,40.6278261 31.7598485,39.8521739 30.157303,39.8521739 C28.7225455,39.8521739 27.3631212,40.4156522 26.3495455,41.4695652 C25.0209394,40.3947826 19.8126667,37.0347826 5.78012121,33.7652174 C5.09869697,33.6643478 3.55093939,33.1391304 2.56475758,32.8747826 C2.44490909,33.7165217 2.29081818,34.4504348 2.21890909,35.24 C2.21890909,35.24 4.80421212,35.8382609 5.32812121,35.9947826 C19.6517273,39.2017391 24.3840303,42.5895652 25.1750303,43.2365217 C24.9079394,43.9147826 24.760697,44.5547826 24.7538485,45.3304348 C24.7538485,48.3391304 27.1816364,50.8052174 30.1504545,50.8052174 C30.4654848,50.8052174 30.7873636,50.7704348 31.1160909,50.6834783 C31.5612424,52.92 32.9651818,54.5617391 35.1840909,55.4104348 C35.7970303,55.6469565 36.4373636,55.8243478 37.0811212,55.8243478 C37.4954545,55.8243478 37.9029394,55.7547826 38.2864545,55.6121739 C38.7281818,56.693913 39.6116364,58.0086957 41.6490606,58.8330435 C42.3304848,59.1182609 43.039303,59.1982609 43.7412727,59.1982609 C44.3302424,59.1982609 44.8575758,59.1913043 45.3575152,58.906087 C46.3642424,61.3026087 48.6516364,62.9408696 51.2403636,62.9408696 C52.9319394,62.9408696 54.5721515,62.2 55.7637879,60.9965217 C56.7842121,61.5947826 58.9277879,62.6 61.1432727,62.6069565 C61.4240606,62.6069565 61.6671818,62.5791304 61.9308485,62.5373913 C64.0915455,62.2521739 65.0948485,61.4243478 65.5673939,60.7286957 C65.6427273,60.6730435 65.7077879,60.5130435 65.779697,60.3947826 C66.2762121,60.5304348 66.8617576,60.693913 67.4849697,60.693913 C68.6697576,60.693913 69.8134545,60.2521739 70.9708485,59.4173913 C72.0871515,58.6034783 72.9021212,57.4 73.0048485,56.3808696 C73.0048485,56.373913 73.011697,56.3530435 73.011697,56.3321739 C73.3780909,56.4330435 73.802697,56.4956522 74.1759394,56.4956522 C75.3915455,56.4956522 76.5968788,56.0747826 77.7268788,55.306087 C79.9389394,53.8034783 80.3156061,51.9495652 80.3156061,50.6591304 C80.6717273,50.7808696 81.0518182,50.8086957 81.473,50.8086957 C82.603,50.8086957 83.6987576,50.4747826 84.7910909,49.7408696 C86.1676364,48.8504348 86.9723333,47.5113043 87.0990303,45.9426087 C87.1914848,44.8156522 86.9243939,43.7547826 86.3559697,42.8052174 C90.061,41.2226087 98.5188788,38.0782609 108.459455,35.8278261 C108.401242,34.986087 108.312212,34.266087 108.16497,33.4313043 C96.1047879,36.1478261 87.1298485,40.1130435 84.8835455,41.1808696 L84.8835455,41.1808696 Z M51.2369394,60.9373913 C48.8776364,60.9304348 46.9840303,59.0695652 46.908697,56.7321739 C46.895,56.5026087 46.8607576,55.9495652 46.4258788,55.9495652 C46.217,55.9495652 46.090303,56.0921739 45.9088182,56.2208696 C45.3849091,56.7773913 44.7411515,57.2191304 43.7789394,57.2191304 C43.3372121,57.2191304 42.8612424,57.0973913 42.3818485,56.9130435 C39.8992727,55.9008696 39.8992727,54.1547826 39.9677576,53.5043478 C40.0088485,53.2921739 40.015697,53.1321739 39.8992727,52.933913 L39.7314848,52.8608696 L39.6047879,52.8608696 C39.437,52.8608696 39.310303,52.9095652 39.1356667,52.9895652 C38.4268485,53.5043478 37.7454242,53.7965217 37.0571515,53.7965217 C36.6565152,53.7965217 36.2798485,53.6886957 35.8929091,53.5043478 C32.643303,52.2730435 32.8898485,49.1147826 33.0576364,48.1652174 C33.0918788,48.0156522 33.0199697,47.8104348 32.9103939,47.786087 L32.670697,47.5356522 L32.4652424,47.813913 C31.8214848,48.4121739 31.0099394,48.7113043 30.1470303,48.7113043 C28.25,48.7113043 26.7501818,47.2156522 26.7501818,45.32 C26.7501818,43.3965217 28.2568485,41.8486957 30.1538788,41.8486957 C31.8043636,41.8486957 33.235697,43.1669565 33.4685455,44.8295652 L33.5575758,45.7617391 L34.0643636,45.0208696 C34.1225758,44.906087 35.4888485,42.8121739 37.9851212,42.8121739 C38.4850606,42.8121739 38.9884242,42.9269565 39.4541212,43.0173913 C41.471,43.6573913 41.7928788,45.5043478 41.8545152,46.3113043 C41.9024545,46.7182609 42.2174848,46.76 42.2585758,46.76 C42.4332121,46.76 42.5530606,46.6104348 42.6592121,46.5826087 C43.0256061,46.1547826 43.857697,45.4556522 45.1486364,45.4556522 C45.7376061,45.4556522 46.3745152,45.653913 47.0011515,45.9391304 C50.1993939,47.2782609 48.7509394,51.4069565 48.7509394,51.4069565 C48.4530303,52.0991304 48.4530303,52.3913043 48.7064242,52.6034783 L48.8125758,52.6034783 L48.8981818,52.6034783 C49.0454242,52.6034783 49.2269091,52.6034783 49.5213939,52.5026087 C49.9562727,52.3043478 50.6171515,52.0886957 51.2335152,52.0956522 L51.2335152,52.0956522 C53.6133636,52.1304348 55.5617576,54.106087 55.5617576,56.506087 C55.5583333,58.8991304 53.5893939,60.9373913 51.2369394,60.9373913 L51.2369394,60.9373913 Z" id="Shape" fill="#060E9F"></path>
                </g>
            </g>
        </g>
    </g>
</svg>