<?xml version="1.0" encoding="UTF-8" standalone="no"?>
<svg width="131px" height="73px" viewBox="0 0 131 73" version="1.1" xmlns="http://www.w3.org/2000/svg" xmlns:xlink="http://www.w3.org/1999/xlink">
    <!-- Generator: Sketch 40.3 (33839) - http://www.bohemiancoding.com/sketch -->
    <title>gastas</title>
    <desc>Created with Sketch.</desc>
    <defs>
        <polygon id="path-1" points="78.6050907 53.0804859 78.6050907 0.389533631 0.167709924 0.389533631 0.167709924 53.0804859 78.6050907 53.0804859"></polygon>
        <polygon id="path-3" points="0.607486264 13.2424651 2.61712938 12.9308764 5.29670832 11.2907348 6.91957505 8.58696137 7.19113394 0.0675738341 0.607486264 0.0675738341 0.607486264 13.2424651"></polygon>
        <polygon id="path-5" points="0.607486264 13.2424651 2.61712938 12.9308764 5.29670832 11.2907348 6.91957505 8.58696137 7.19113394 0.0675738341 0.607486264 0.0675738341 0.607486264 13.2424651"></polygon>
    </defs>
    <g id="Welcome" stroke="none" stroke-width="1" fill="none" fill-rule="evenodd">
        <g id="Landing-Sellers" transform="translate(-1337.000000, -1298.000000)">
            <g id="Como-funciona" transform="translate(-9.000000, 1065.000000)">
                <g id="gastas" transform="translate(1347.000000, 234.000000)">
                    <path d="M42.7759732,21.9296773 C42.7759732,30.8077638 35.5655147,38.0047052 26.6672748,38.0047052 L26.6672748,21.1834129 L42.7759732,21.9296773 Z" id="Fill-1" fill="#EDD045"></path>
                    <path d="M42.7759732,65.3470138 C42.7759732,56.4681072 35.5655147,49.2703458 26.6672748,49.2703458 L26.6672748,66.0932783 L42.7759732,65.3470138 Z" id="Fill-3" fill="#EDD045"></path>
                    <path d="M92.694532,65.3470138 C92.694532,56.4681072 99.9049905,49.2703458 108.802409,49.2703458 L108.802409,66.0932783 L92.694532,65.3470138 Z" id="Fill-5" fill="#EDD045"></path>
                    <path d="M92.694532,21.9296773 C92.694532,30.8077638 99.9049905,38.0047052 108.802409,38.0047052 L108.802409,21.1834129 L92.694532,21.9296773 Z" id="Fill-7" fill="#EDD045"></path>
                    <polyline id="Stroke-9" stroke="#484848" stroke-width="2" stroke-linecap="round" stroke-linejoin="round" points="21.7165863 52.3091182 21.7165863 16.7893915 114.527307 16.7893915 114.527307 70.2850702 21.7165863 70.2850702 21.7165863 60.5032656"></polyline>
                    <polyline id="Stroke-11" stroke="#484848" stroke-width="2" stroke-linecap="round" stroke-linejoin="round" points="109.886155 31.6423499 109.886155 65.8926069 24.9876282 65.8926069"></polyline>
                    <polyline id="Stroke-13" stroke="#484848" stroke-width="2" stroke-linecap="round" stroke-linejoin="round" points="24.9873817 58.711903 24.9873817 21.1830029 109.885908 21.1830029 109.885908 25.9836973"></polyline>
                    <path d="M92.7370963,22.1955443 C92.7370963,31.0736308 99.9483765,38.2722123 108.844151,38.2722123" id="Stroke-15" stroke="#484848" stroke-width="2" stroke-linecap="round" stroke-linejoin="round"></path>
                    <path d="M102.192288,50.153234 C96.593192,52.6708514 92.6942033,58.2899765 92.6942033,64.8169201" id="Stroke-17" stroke="#484848" stroke-width="1.351" stroke-linecap="round" stroke-linejoin="round"></path>
                    <path d="M85.0857933,43.5382149 C85.0857933,52.4983085 77.8063116,59.7649559 68.8275446,59.7649559 C59.8487777,59.7649559 52.5676526,52.4983085 52.5676526,43.5382149 C52.5676526,34.5748411 59.8487777,27.3098338 68.8275446,27.3098338 C74.4389658,27.3098338 79.3856279,30.1480989 82.3076098,34.4649516 C84.0619492,37.0547352 85.086615,40.1767447 85.0857933,43.5382149" id="Fill-19" fill="#EDD045"></path>
                    <path d="M81.7508227,43.5382149 C81.7508227,50.6613499 75.9643784,56.4371086 68.8270516,56.4371086 C61.6897248,56.4371086 55.9041022,50.6613499 55.9041022,43.5382149 C55.9041022,36.4134398 61.6897248,30.6385012 68.8270516,30.6385012 C73.2864428,30.6385012 77.2199431,32.894516 79.5437239,36.3256922 C80.9373351,38.3840699 81.7516444,40.8664243 81.7508227,43.5382149 L81.7508227,43.5382149 Z" id="Stroke-21" stroke="#484848" stroke-width="1.351" stroke-linecap="round" stroke-linejoin="round"></path>
                    <g id="Group-29" opacity="0.6" transform="translate(0.000000, 70.980162)" stroke-linecap="round" stroke="#A5A4A4" stroke-width="2">
                        <g id="Group-25" transform="translate(9.038751, 0.000000)" opacity="0.4">
                            <path d="M0.48710653,0 L119.822454,0" id="Stroke-23"></path>
                        </g>
                        <g id="Group-28" opacity="0.4">
                            <path d="M6.59606992,0 L0.739780717,0" id="Stroke-26"></path>
                        </g>
                    </g>
                    <g id="Group-35" opacity="0.4" transform="translate(22.186026, 16.035418)">
                        <polygon id="Fill-30" fill="#AFAFAF" points="0.165984344 53.0807228 78.6050907 53.0807228 78.6050907 0.389533631 0.165984344 0.389533631"></polygon>
                        <g id="Group-34">
                            <mask id="mask-2" fill="white">
                                <use xlink:href="#path-1"></use>
                            </mask>
                            <g id="Clip-33"></g>
                            <path d="M78.6051728,0.389205603 L0.167709924,0.389205603 L0.167709924,53.048412 L68.3083916,53.048412 C68.3083916,53.048412 69.4185146,53.1205782 70.7981568,53.048412 L71.51797,53.048412 C74.5936106,53.048412 77.2074532,51.2204742 78.1861035,48.6725142 L78.1926771,48.6725142 L78.1926771,48.6552927 C78.334832,48.2813404 78.4408319,47.8926269 78.5082117,47.4924323 L78.5106768,47.4875119 L78.5090334,47.4817714 C78.5673744,47.1480026 78.6051728,46.8084933 78.6051728,46.4607833" id="Fill-32" fill="#AFAFAF" mask="url(#mask-2)"></path>
                        </g>
                    </g>
                    <polyline id="Fill-36" fill="#F8F8F8" points="97.5966578 13.7289693 24.5208178 13.7289693 24.5208178 67.0015887 90.9950824 67.0015887 94.9984276 65.6451916 96.7519453 62.6256909 97.5966578 60.4139599"></polyline>
                    <polyline id="Stroke-38" stroke="#484848" stroke-width="2" stroke-linecap="round" stroke-linejoin="round" points="90.9950002 67.0015067 24.5215573 67.0015067 24.5215573 13.7288873 97.5965756 13.7288873"></polyline>
                    <polyline id="Stroke-40" stroke="#484848" stroke-width="2" stroke-linecap="round" stroke-linejoin="round" points="29.2540011 62.6256909 29.2540011 18.1048671 97.5951787 18.1048671"></polyline>
                    <path d="M97.2123465,62 L38.3544625,62" id="Stroke-42" stroke="#484848" stroke-width="2" stroke-linecap="round" stroke-linejoin="round"></path>
                    <path d="M46.2979637,19.2644472 C46.2979637,28.1056305 39.1179083,35.2722293 30.2574668,35.2722293 L30.2574668,19.2644472 L46.2979637,19.2644472 Z" id="Fill-44" fill="#EDD045"></path>
                    <path d="M30.340459,45.4650533 C39.2000788,45.4650533 46.3801342,52.631652 46.3801342,61.4728353 L30.340459,61.4728353 L30.340459,45.4650533 Z" id="Fill-46" fill="#EDD045"></path>
                    <path d="M84.4069009,40.3660171 C84.4069009,47.6416852 78.4972009,53.5420946 71.2053936,53.5420946 C63.9160514,53.5420946 58.0030646,47.6416852 58.0030646,40.3660171 C58.0030646,33.0887088 63.9160514,27.1882993 71.2053936,27.1882993 C78.4972009,27.1882993 84.4069009,33.0887088 84.4069009,40.3660171" id="Fill-48" fill="#EDD045"></path>
                    <g id="Group-59" opacity="0.4" transform="translate(90.387514, 52.938605)">
                        <polygon id="Fill-50" fill="#AFAFAF" points="0.607486264 14.0629021 2.61655419 13.7504552 5.29695483 12.1103136 6.91982156 9.40654013 7.2090616 0.333276774 0.607486264 0.055272772"></polygon>
                        <g id="Group-58" transform="translate(0.000000, 0.820071)">
                            <g id="Group-54">
                                <mask id="mask-4" fill="white">
                                    <use xlink:href="#path-3"></use>
                                </mask>
                                <g id="Clip-53"></g>
                                <path d="M0.607486264,13.2428313 C4.25256819,13.2428313 7.2090616,10.2938567 7.2090616,6.65520259 C7.2090616,3.01572837 4.25256819,0.0675738341 0.607486264,0.0675738341" id="Fill-52" fill="#AFAFAF" mask="url(#mask-4)"></path>
                            </g>
                            <g id="Group-57">
                                <mask id="mask-6" fill="white">
                                    <use xlink:href="#path-5"></use>
                                </mask>
                                <g id="Clip-56"></g>
                                <path d="M0.607486264,13.2428313 C4.25256819,13.2428313 7.2090616,10.2938567 7.2090616,6.65520259 C7.2090616,3.01572837 4.25256819,0.0675738341 0.607486264,0.0675738341" id="Fill-55" fill="#AFAFAF" mask="url(#mask-6)"></path>
                            </g>
                        </g>
                    </g>
                    <g id="Group-63" transform="translate(90.387514, 0.454073)">
                        <path d="M7.20914377,59.9596407 C7.20914377,56.3209865 4.25347207,53.3720119 0.607568435,53.3720119 L0.607568435,0.0993925812 C4.25347207,0.0993925812 7.20914377,3.05000733 7.20914377,6.68702133 L7.20914377,59.9596407" id="Fill-60" fill="#FFFFFF"></path>
                        <path d="M7.20914377,59.9596407 C7.20914377,56.3209865 4.25347207,53.3720119 0.607568435,53.3720119 L0.607568435,0.0993925812 C4.25347207,0.0993925812 7.20914377,3.05000733 7.20914377,6.68702133 L7.20914377,59.9596407" id="Stroke-62" stroke="#484848" stroke-width="1.351" stroke-linecap="round" stroke-linejoin="round"></path>
                    </g>
                    <path d="M90.9950002,67.0015067 C94.6400822,67.0015067 97.5965756,64.0525321 97.5965756,60.4138779" id="Stroke-64" stroke="#484848" stroke-width="1.351" stroke-linecap="round" stroke-linejoin="round"></path>
                    <path d="M47.0289522,18.4219885 C47.0297739,24.264993 43.9056527,29.3805946 39.2342617,32.1942575" id="Stroke-66" stroke="#484848" stroke-width="2" stroke-linecap="round" stroke-linejoin="round"></path>
                    <path d="M31.0057111,46.1377574 C36.9663568,46.1377574 42.1718559,49.3696564 44.956613,54.171991" id="Stroke-68" stroke="#484848" stroke-width="2" stroke-linecap="round" stroke-linejoin="round"></path>
                </g>
            </g>
        </g>
    </g>
</svg>