<?xml version="1.0" encoding="UTF-8" standalone="no"?>
<svg width="139px" height="73px" viewBox="0 0 139 73" version="1.1" xmlns="http://www.w3.org/2000/svg" xmlns:xlink="http://www.w3.org/1999/xlink">
    <!-- Generator: Sketch 40.3 (33839) - http://www.bohemiancoding.com/sketch -->
    <title>recibes</title>
    <desc>Created with Sketch.</desc>
    <defs></defs>
    <g id="Welcome" stroke="none" stroke-width="1" fill="none" fill-rule="evenodd">
        <g id="Landing-Sellers" transform="translate(-735.000000, -1298.000000)">
            <g id="Como-funciona" transform="translate(-9.000000, 1065.000000)">
                <g id="recibes" transform="translate(745.000000, 234.000000)">
                    <g id="Group-3" opacity="0.4" transform="translate(9.261745, 70.294657)" stroke="#A5A4A4" stroke-width="2" stroke-linecap="round">
                        <path d="M0.776041611,0 L127.498941,0" id="Stroke-1"></path>
                    </g>
                    <g id="Group-6" opacity="0.4" transform="translate(0.000000, 70.294657)" stroke="#A5A5A4" stroke-width="2" stroke-linecap="round">
                        <path d="M6.96983356,0 L0.833927517,0" id="Stroke-4"></path>
                    </g>
                    <path d="M123.506851,59.9171063 L82.998757,59.8856886 L83.0015356,64.1113722 L55.4385826,64.1196886 L55.4367302,59.8810684 L69.7016698,59.8764481 L14.6822738,59.8339418 C14.6822738,59.8339418 12.3297906,70.6573468 22.0055356,70.6628911 L116.169697,70.7349671 C125.845442,70.7432835 123.506851,59.9171063 123.506851,59.9171063" id="Fill-7" fill="#EDD045"></path>
                    <polygon id="Fill-9" fill="#EDD045" points="83.2797584 59.8693329 69.9854497 59.8767253 83.2797584 59.8859658"></polygon>
                    <polygon id="Fill-11" fill="#EDD045" points="39.1799597 37.2921886 101.30404 37.2921886 101.30404 31.5529101 39.1799597 31.5529101"></polygon>
                    <polygon id="Fill-13" fill="#EDD045" points="39.1799597 45.7084418 101.30404 45.7084418 101.30404 40.3535684 39.1799597 40.3535684"></polygon>
                    <polygon id="Fill-14" fill="#EDD045" points="39.1799597 54.5081759 101.30404 54.5081759 101.30404 48.7698215 39.1799597 48.7698215"></polygon>
                    <path d="M77.6612134,20.330962 C77.6612134,24.4660886 74.3019785,27.8176203 70.1573477,27.8176203 C66.0154953,27.8176203 62.6553342,24.4660886 62.6553342,20.330962 C62.6553342,16.1976835 66.0154953,12.8443038 70.1573477,12.8443038 C74.3019785,12.8443038 77.6612134,16.1976835 77.6612134,20.330962" id="Fill-15" fill="#EDD045"></path>
                    <polygon id="Fill-16" fill="#AFAFAF" opacity="0.4" points="107.82153 59.4823405 114.724309 59.4823405 114.724309 56.0384038 107.82153 56.0384038"></polygon>
                    <polygon id="Fill-17" fill="#AFAFAF" opacity="0.4" points="31.5112349 59.4823405 107.82153 59.4823405 107.82153 56.0384038 31.5112349 56.0384038"></polygon>
                    <path d="M16.6349275,67.4340734 C17.0350349,68.8414025 18.7299342,70.4132127 22.9625517,70.4132127 L115.216015,70.2672127 C118.905894,70.2672127 121.080552,68.5835924 121.440834,67.1466937" id="Fill-18" fill="#AFAFAF" opacity="0.4"></path>
                    <path d="M72.4786188,19.0513367 C72.4786188,20.3200582 71.4459342,21.3503747 70.1742966,21.3503747 C68.9008067,21.3503747 67.8690483,20.3200582 67.8690483,19.0513367 C67.8690483,17.7826152 68.9008067,16.7532228 70.1742966,16.7532228 C71.4459342,16.7532228 72.4786188,17.7826152 72.4786188,19.0513367 L72.4786188,19.0513367 Z" id="Stroke-19" stroke="#484848" stroke-width="2" stroke-linecap="round" stroke-linejoin="round"></path>
                    <path d="M66.0568953,25.2598481 C66.9488013,23.9421519 68.4593919,23.0763165 70.1737409,23.0763165 C71.8325195,23.0763165 73.3032846,23.888557 74.2035262,25.1369494" id="Stroke-20" stroke="#484848" stroke-width="2" stroke-linecap="round" stroke-linejoin="round"></path>
                    <path d="M108.393165,59.6491316 L31.479004,59.5872203" id="Stroke-21" stroke="#484848" stroke-width="2" stroke-linecap="round" stroke-linejoin="round"></path>
                    <path d="M122.363581,59.5959063 C122.363581,59.5959063 124.695689,70.1956911 115.21444,70.1956911 L24.610494,70.1956911" id="Stroke-22" stroke="#484848" stroke-width="2" stroke-linecap="round" stroke-linejoin="round"></path>
                    <polyline id="Stroke-23" stroke="#484848" stroke-width="2" stroke-linecap="round" stroke-linejoin="round" points="25.7592282 39.9697177 25.7592282 0.623641772 114.379309 0.691097468 114.344114 59.9911228"></polyline>
                    <path d="M108.35334,59.6491316 L108.393165,7.09467595 C108.394091,6.52268861 107.930078,6.06158734 107.361407,6.06066329 L44.5880779,6.00984051 L36.8897154,6.0061443 L32.439447,6.0024481 C31.8698497,6.0024481 31.4086148,6.46354937 31.4049101,7.03461266" id="Stroke-24" stroke="#484848" stroke-width="2" stroke-linecap="round" stroke-linejoin="round"></path>
                </g>
            </g>
        </g>
    </g>
</svg>