<?xml version="1.0" encoding="UTF-8" standalone="no"?>
<svg width="179px" height="159px" viewBox="0 0 179 159" version="1.1" xmlns="http://www.w3.org/2000/svg" xmlns:xlink="http://www.w3.org/1999/xlink">
    <!-- Generator: Sketch 40.3 (33839) - http://www.bohemiancoding.com/sketch -->
    <title>pago_manual</title>
    <desc>Created with Sketch.</desc>
    <defs></defs>
    <g id="Welcome" stroke="none" stroke-width="1" fill="none" fill-rule="evenodd">
        <g id="MLU-Desktop-Sellers" transform="translate(-551.000000, -1913.000000)">
            <g id="pago_manual" transform="translate(551.000000, 1914.000000)">
                <g id="Page-1">
                    <polygon id="Fill-1" fill="#F5D200" points="0 68.3892346 82.8199377 151.195985 134.264498 99.7572697 51.4474553 16.9505197"></polygon>
                    <polygon id="Fill-2" fill="#EDD045" points="74.4037634 142.781148 89.6702381 158.044011 141.116246 106.606744 106.097584 71.5915992"></polygon>
                    <g id="Group-71" transform="translate(15.922179, 0.292348)">
                        <path d="M96.4348482,90.7607771 L44.2303658,38.5636951 C38.8081401,43.9851521 30.0190973,43.9851521 24.5968716,38.5636951 L5.9867393,57.1668475 C11.4104125,62.591199 11.4104125,71.3775486 5.98818677,76.7990057 L58.1926693,128.997535 C63.6148949,123.577525 72.4053852,123.577525 77.8261634,128.997535 L96.4348482,110.390041 C91.01407,104.971478 91.01407,96.1807869 96.4348482,90.7607771 L96.4348482,90.7607771 Z" id="Stroke-3" stroke="#484848" stroke-width="2" stroke-linecap="round"></path>
                        <path d="M64.4526911,70.540016 C71.7667611,77.8530492 71.7653136,89.7061547 64.4526911,97.0191879 C57.1400685,104.332221 45.283835,104.333668 37.9683175,97.0177406 C30.6571424,89.7104965 30.6556949,77.8501547 37.969765,70.540016 C45.2823875,63.2269828 57.1400685,63.2284301 64.4526911,70.540016" id="Fill-5" fill="#FFFFFF"></path>
                        <path d="M61.3818817,73.6085086 C66.999516,79.2253465 67.0009634,88.3329891 61.3818817,93.9483797 C55.7642475,99.5652176 46.6567611,99.5652176 41.0391268,93.9483797 C35.4214926,88.3329891 35.4214926,79.2253465 41.0391268,73.6085086 C46.6582086,67.9902234 55.7642475,67.993118 61.3818817,73.6085086" id="Fill-7" fill="#FFFFFF"></path>
                        <path d="M61.3818817,73.6085086 C66.999516,79.2253465 67.0009634,88.3329891 61.3818817,93.9483797 C55.7642475,99.5652176 46.6567611,99.5652176 41.0391268,93.9483797 C35.4214926,88.3329891 35.4214926,79.2253465 41.0391268,73.6085086 C46.6582086,67.9902234 55.7642475,67.993118 61.3818817,73.6085086 L61.3818817,73.6085086 Z" id="Stroke-9" stroke="#484848" stroke-width="2" stroke-linecap="round"></path>
                        <path d="M55.8350288,108.718738 C58.5446942,105.238065 58.304414,100.203028 55.1026086,96.9987814 C51.8602739,93.7612482 46.7420171,93.5499475 43.2536125,96.3605373 C45.9820949,92.8769689 45.7476047,87.8245646 42.5371144,84.617424 C39.3237292,81.4030471 34.2648187,81.1729318 30.776414,83.9097111 C33.5193712,80.4261428 33.2877759,75.3679494 30.0729432,72.1521252 C26.6062506,68.6888186 20.981379,68.6844768 17.5132389,72.1506779 L2.60284202,87.0589611 C-0.863850584,90.5338459 -0.865298054,96.1506838 2.60284202,99.6183322 C5.82201712,102.838498 10.8910599,103.067166 14.3736747,100.310125 C11.6234802,103.796588 11.8507331,108.86636 15.0670132,112.080737 C18.3122428,115.325506 23.4406319,115.536807 26.9290366,112.710297 C24.1875268,116.195313 24.4176747,121.253506 27.6325074,124.467883 C30.8357603,127.667787 35.8744062,127.908033 39.359916,125.191516 C36.6444607,128.676531 36.8803984,133.714463 40.0850988,136.915815 C43.5546864,140.387805 49.176663,140.387805 52.6462506,136.917262 L67.5566475,122.014768 C71.026235,118.544225 71.0233401,112.921598 67.5552,109.449608 C64.354842,106.251151 59.3176436,106.009457 55.8350288,108.718738" id="Fill-11" fill="#FFFFFF"></path>
                        <g id="Group-16" transform="translate(0.000000, 69.468750)">
                            <path d="M2.60298677,30.1494375 C-0.865153307,26.6817891 -0.865153307,21.0649512 2.60298677,17.5900664 L17.5133837,2.6817832 C20.9815237,-0.784417969 26.6063953,-0.780076172 30.0730879,2.68323047 C33.2879206,5.89905469 33.519516,10.957248 30.7765588,14.4408164 C34.2649634,11.7040371 39.3238739,11.9341523 42.5372591,15.1485293 C45.7477494,18.3571172 45.9822397,23.4080742 43.2523097,26.8916426 C46.7421619,24.0810527 51.8604187,24.2923535 55.1027533,27.5298867 C58.3031113,30.7341328 58.5433914,35.7691699 55.8351735,39.2498438 C59.3177883,36.5405625 64.3549868,36.7822559 67.5553447,39.9807129 C71.0234848,43.4527031 71.0263798,49.0753301 67.5567922,52.545873 L52.6463953,67.4483672" id="Fill-13" fill="#FFFFFF"></path>
                            <path d="M2.60298677,30.1494375 C-0.865153307,26.6817891 -0.865153307,21.0649512 2.60298677,17.5900664 L17.5133837,2.6817832 C20.9815237,-0.784417969 26.6063953,-0.780076172 30.0730879,2.68323047 C33.2879206,5.89905469 33.519516,10.957248 30.7765588,14.4408164 C34.2649634,11.7040371 39.3238739,11.9341523 42.5372591,15.1485293 C45.7477494,18.3571172 45.9822397,23.4080742 43.2523097,26.8916426 C46.7421619,24.0810527 51.8604187,24.2923535 55.1027533,27.5298867 C58.3031113,30.7341328 58.5433914,35.7691699 55.8351735,39.2498438 C59.3177883,36.5405625 64.3549868,36.7822559 67.5553447,39.9807129 C71.0234848,43.4527031 71.0263798,49.0753301 67.5567922,52.545873 L52.6463953,67.4483672" id="Stroke-15" stroke="#484848" stroke-width="2" stroke-linecap="round"></path>
                        </g>
                        <g id="Group-20" transform="translate(24.607004, 96.281250)">
                            <path d="M3.02564825,28.1864883 C-0.189184436,24.9721113 -0.419332296,19.913918 2.32217743,16.4289023 L18.6597805,0.0936152344" id="Fill-17" fill="#FFFFFF"></path>
                            <path d="M3.02564825,28.1864883 C-0.189184436,24.9721113 -0.419332296,19.913918 2.32217743,16.4289023 L18.6597805,0.0936152344" id="Stroke-19" stroke="#484848" stroke-width="2" stroke-linecap="round"></path>
                        </g>
                        <g id="Group-24" transform="translate(12.339689, 83.255859)">
                            <path d="M2.72804825,28.8253113 C-0.488231907,25.6094871 -0.715484825,20.5397156 2.03470973,17.0547 L18.9498537,0.143401172" id="Fill-21" fill="#FFFFFF"></path>
                            <path d="M2.72804825,28.8253113 C-0.488231907,25.6094871 -0.715484825,20.5397156 2.03470973,17.0547 L18.9498537,0.143401172" id="Stroke-23" stroke="#484848" stroke-width="2" stroke-linecap="round"></path>
                        </g>
                        <polygon id="Fill-25" fill="#AFAFAF" opacity="0.4" style="mix-blend-mode: multiply;" points="123.745293 104.863223 72.2992856 156.303385 67.2620872 151.266901 118.708095 99.8281857"></polygon>
                        <path d="M69.5117463,50.6486525 L63.823186,56.3364064 C48.6421121,71.5182229 36.891544,57.756174 36.891544,57.756174 L64.4152016,30.2364182" id="Fill-27" fill="#AFAFAF" opacity="0.4" style="mix-blend-mode: multiply;"></path>
                        <g id="Group-32" transform="translate(110.007782, 90.492188)">
                            <path d="M51.4214093,0.504638672 L0.152163241,0.592921875" id="Fill-29" fill="#FFFFFF"></path>
                            <path d="M51.4214093,0.504638672 L0.152163241,0.592921875" id="Stroke-31" stroke="#484848" stroke-width="2" stroke-linecap="round"></path>
                        </g>
                        <g id="Group-36" transform="translate(34.051751, 25.365234)">
                            <path d="M33.0124669,22.8369604 L27.3253541,28.5261615 C12.1428327,43.7050834 0.392264591,29.9430346 0.392264591,29.9430346 L27.9159222,2.42617324 C27.9159222,2.42617324 30.5184747,-1.51038926 34.4555953,2.42472598 C38.389821,6.35839395 47.443751,15.4124877 47.443751,15.4124877 L99.5830973,15.7989076 L99.5816498,36.5584857" id="Fill-33" fill="#FFFFFF"></path>
                            <path d="M33.0124669,22.8369604 L27.3253541,28.5261615 C12.1428327,43.7050834 0.392264591,29.9430346 0.392264591,29.9430346 L27.9159222,2.42617324 C27.9159222,2.42617324 30.5184747,-1.51038926 34.4555953,2.42472598 C38.389821,6.35839395 47.443751,15.4124877 47.443751,15.4124877 L127.598661,15.7989076 L127.597214,36.5584857" id="Stroke-35" stroke="#484848" stroke-width="2" stroke-linecap="round"></path>
                        </g>
                        <path d="M67.0401899,150.965001 L102.442431,115.569226" id="Stroke-37" stroke="#484848" stroke-width="2" stroke-linecap="round"></path>
                        <path d="M104.442691,113.560855 L115.499921,102.503746" id="Stroke-39" stroke="#484848" stroke-width="2" stroke-linecap="round"></path>
                        <path d="M72.7876623,151.839873 L76.9144016,147.713719" id="Stroke-41" stroke="#484848" stroke-width="2" stroke-linecap="round"></path>
                        <path d="M78.9960093,145.624012 L113.282251,111.342631" id="Stroke-43" stroke="#484848" stroke-width="2" stroke-linecap="round"></path>
                        <path d="M43.8884732,95.9718018 C45.5183253,94.6605791 47.5013603,94.0324658 49.4829479,94.0353604 C50.4570957,90.9787354 49.7362553,87.4995088 47.3073992,85.0695498 C45.4951658,83.256126 43.0938117,82.4297373 40.7185121,82.5122314 C41.6014693,82.9362803 42.4395549,83.4934775 43.1719751,84.2243467 C46.3810179,87.4372764 46.6184031,92.4896807 43.8884732,95.9718018" id="Fill-45" fill="#AFAFAF" opacity="0.4" style="mix-blend-mode: multiply;"></path>
                        <path d="M31.4118537,83.5216992 C33.0417058,82.2394219 35.0175035,81.6373594 36.9860638,81.6547266 C37.9978459,78.5763926 37.2943751,75.0595371 34.843807,72.6078691 C33.0243362,70.787209 30.6099549,69.9347695 28.2230755,70.0245 C29.1205074,70.4485488 29.9658304,71.021666 30.7069354,71.7641133 C33.9232156,74.9813848 34.1548109,80.0381309 31.4118537,83.5216992" id="Fill-47" fill="#AFAFAF" opacity="0.4" style="mix-blend-mode: multiply;"></path>
                        <path d="M56.4697447,108.3287 C58.0952545,107.065237 60.0580249,106.471859 62.0164529,106.495015 C63.0224451,103.416681 62.3204218,99.9041672 59.8713012,97.4524992 C58.0576202,95.6390754 55.6519237,94.8068977 53.2766241,94.8980754 C54.1610288,95.3192297 55.0005619,95.876427 55.735877,96.6101906 C58.93913,99.8129895 59.1779626,104.848027 56.4697447,108.3287" id="Fill-49" fill="#AFAFAF" opacity="0.4" style="mix-blend-mode: multiply;"></path>
                        <path d="M65.7363082,107.349191 C66.6207128,107.770345 67.457351,108.330437 68.1912187,109.064201 C71.6593588,112.530402 71.6593588,118.154476 68.1897712,121.623572 L53.2808218,136.528961 C51.6321525,138.175949 49.500028,139.031283 47.3432965,139.11233 C50.6391875,140.672482 54.6906584,140.099365 57.4176934,137.371269 L72.3280903,122.468775 C75.7962304,119.001127 75.7947829,113.375605 72.3251953,109.906509 C70.5129619,108.094533 68.1116078,107.26525 65.7363082,107.349191" id="Fill-51" fill="#AFAFAF" opacity="0.4" style="mix-blend-mode: multiply;"></path>
                        <g id="Group-56" transform="translate(36.946693, 108.544922)">
                            <path d="M3.13797198,28.3714717 C-0.0667284047,25.1686729 -0.302666148,20.1321885 2.41278911,16.6457256 L18.8879019,0.174395508" id="Fill-53" fill="#FFFFFF"></path>
                            <path d="M3.13797198,28.3714717 C-0.0667284047,25.1686729 -0.302666148,20.1321885 2.41278911,16.6457256 L18.8879019,0.174395508" id="Stroke-55" stroke="#484848" stroke-width="2" stroke-linecap="round"></path>
                        </g>
                        <polyline id="Stroke-57" stroke="#484848" stroke-width="2" stroke-linecap="round" points="90.1756949 71.2989621 125.194356 106.314107 86.2298895 145.271603"></polyline>
                        <g id="Group-62" transform="translate(161.789883, 65.898783)" stroke="#484848" stroke-width="2" stroke-linecap="round">
                            <path d="M0,0.134283398 L0,11.051008" id="Stroke-61"></path>
                        </g>
                        <path d="M36.4762646,10.4757428 L36.4762646,0.273967383" id="Stroke-63" stroke="#AFAFAF" stroke-width="3" stroke-linecap="round" opacity="0.4"></path>
                        <path d="M44.3712047,14.1927551 L51.7533058,6.80880586" id="Stroke-65" stroke="#AFAFAF" stroke-width="3" stroke-linecap="round" opacity="0.4"></path>
                        <path d="M21.2371471,7.82999648 L20.2181276,6.80967422" id="Stroke-67" stroke="#AFAFAF" stroke-width="3" stroke-linecap="round" opacity="0.4"></path>
                        <path d="M27.6015315,14.1927551 L22.7713214,9.36322969" id="Stroke-69" stroke="#AFAFAF" stroke-width="3" stroke-linecap="round" opacity="0.4"></path>
                    </g>
                </g>
            </g>
        </g>
    </g>
</svg>