<?xml version="1.0" encoding="UTF-8" standalone="no"?>
<svg width="109px" height="112px" viewBox="0 0 109 112" version="1.1" xmlns="http://www.w3.org/2000/svg" xmlns:xlink="http://www.w3.org/1999/xlink">
    <!-- Generator: sketchtool 40.3 (33839) - http://www.bohemiancoding.com/sketch -->
    <title>061546F6-9395-456D-8DA5-94A36E37A34D</title>
    <desc>Created with sketchtool.</desc>
    <defs></defs>
    <g id="Page-1" stroke="none" stroke-width="1" fill="none" fill-rule="evenodd">
        <g id="Landing-sellers---MP-Skin" transform="translate(-452.000000, -1332.000000)">
            <g id="Icons-60px-[Recovered]-04" transform="translate(453.000000, 1333.000000)">
                <g id="icons">
                    <rect id="Rectangle-4" fill="#CEEDFD" x="2" y="1" width="104" height="12" rx="6"></rect>
                    <path d="M32.2111088,80.5912075 L9.86773575,80.5912075 C4.86034536,80.5757286 0.804897766,76.520281 0.78941886,71.5128906 L0.78941886,9.75496162 C0.797154762,4.742067 4.85485916,0.678061819 9.86773575,0.662547971 L97.0562294,0.662547971 C102.06362,0.678026878 106.119067,4.73347447 106.134546,9.74086486 L106.134546,71.5128906 C106.119067,76.520281 102.06362,80.5757286 97.0562294,80.5912075 L74.9665981,80.5912075" id="Shape" stroke="#009EE3" stroke-width="2" stroke-linecap="round" stroke-linejoin="round"></path>
                    <polyline id="Shape" stroke="#009EE3" stroke-width="2" stroke-linecap="round" stroke-linejoin="round" opacity="0.5" points="59.2064145 29.4340461 50.7765488 37.3000411 47.9712925 34.4947848"></polyline>
                    <ellipse id="Oval" stroke="#009EE3" stroke-width="2" stroke-linecap="round" stroke-linejoin="round" cx="53.5818051" cy="33.3670436" rx="12.9126371" ry="12.9126371"></ellipse>
                    <path d="M47.496626,70.4053044 L32.619915,70.4053043 C29.5057436,70.4053043 26.9812089,67.8807695 26.9812089,64.7665981 L26.9812089,61.9472451 C26.9812089,58.8330737 29.5057436,56.3085389 32.619915,56.3085389 L74.3604372,56.3085389 C77.4746086,56.3085389 79.9991434,58.8330737 79.9991434,61.9472451 L79.9991434,64.7665981 C79.9991434,67.8807695 77.4746086,70.4053043 74.3604372,70.4053043 L58.2747651,70.4053044" id="Shape" stroke="#009EE3" stroke-width="2" stroke-linecap="round" stroke-linejoin="round" fill="#CEEDFD"></path>
                    <path d="M48.4505825,68.6854989 C48.5676026,66.4812696 50.360209,64.7377757 52.566838,64.6820175 C54.8275163,64.6795546 56.6903706,66.4554757 56.7958676,68.7136924 L56.7958676,84.3188117 L68.3552152,88.3081963 C70.94902,89.1399054 71.5974712,92.2130003 70.9772135,94.8772889 L68.2565378,109.34057 L47.4074219,109.34057 L36.8066543,93.5662897 C35.6084293,91.747807 35.4956552,88.3081963 38.1176535,88.3081963 C40.7396519,88.3081963 43.192489,88.7310992 48.4505825,96.7662555 L48.4505825,68.6854989 Z" id="Shape" stroke="#009EE3" stroke-width="2" stroke-linecap="round" stroke-linejoin="round" fill="#FFFFFF"></path>
                    <path d="M0.78941886,12 L106.134546,12" id="Shape" stroke="#009EE3" stroke-width="2" stroke-linecap="round" stroke-linejoin="round" fill="#000000"></path>
                </g>
            </g>
        </g>
    </g>
</svg>