<?xml version="1.0" encoding="UTF-8" standalone="no"?>
<svg width="112px" height="103px" viewBox="0 0 112 103" version="1.1" xmlns="http://www.w3.org/2000/svg" xmlns:xlink="http://www.w3.org/1999/xlink">
    <!-- Generator: sketchtool 40.3 (33839) - http://www.bohemiancoding.com/sketch -->
    <title>F114118B-272B-49E7-9DF1-FB5174EFCD36</title>
    <desc>Created with sketchtool.</desc>
    <defs></defs>
    <g id="Page-1" stroke="none" stroke-width="1" fill="none" fill-rule="evenodd">
        <g id="Landing-sellers---MP-Skin" transform="translate(-1346.000000, -1333.000000)">
            <g id="Como-funciona" transform="translate(-10.000000, 977.000000)">
                <g id="Icons-60px-[Recovered]2-05" transform="translate(1356.000000, 356.000000)">
                    <g id="icons" transform="translate(1.000000, 1.000000)">
                        <rect id="Rectangle-4-Copy" fill="#C3E8F8" x="2" y="1" width="109" height="12" rx="6"></rect>
                        <path d="M18.7131647,83.1602307 L10.1939419,83.1602307 C5.02101794,83.1442583 0.831505957,78.9595344 0.815515351,73.7925223 L0.815515351,10.0659226 C0.823506985,4.89323088 5.01535037,0.69967654 10.1939419,0.683668155 L100.2647,0.683668155 C105.437624,0.699640486 109.627136,4.88436445 109.643126,10.0513765 L109.643126,73.7925223 C109.627136,78.9595344 105.437624,83.1442583 100.2647,83.1602307 L90.5513295,83.1602307" id="Shape" stroke="#009EE3" stroke-width="2" stroke-linecap="round" stroke-linejoin="round"></path>
                        <path d="M0.815515351,12 L109.643126,12" id="Shape" stroke="#009EE3" stroke-width="2" stroke-linecap="round" stroke-linejoin="round"></path>
                        <path d="M85.0174753,57 L85.0174753,85.585016 C85.0174753,86.9531693 84.013399,88.0622768 82.7748081,88.0622768 L27.3052015,88.0622768 C26.0666106,88.0622768 25.0625343,86.9531693 25.0625343,85.585016 L25.0625343,57" id="Shape" stroke="#009EE3" stroke-width="2" stroke-linecap="round" stroke-linejoin="round" fill="#C3E8F8"></path>
                        <ellipse id="Oval" stroke="#009EE3" stroke-width="2" stroke-linecap="round" stroke-linejoin="round" cx="55.3152412" cy="70.3577381" rx="8.38815789" ry="8.37857143"></ellipse>
                        <path d="M36.3020833,83 L44.4135485,83" id="Shape" stroke="#009EE3" stroke-width="2" stroke-linecap="round" stroke-linejoin="round"></path>
                        <path d="M27.3488898,101 L82.7311198,101" id="Shape" stroke="#009EE3" stroke-width="2" stroke-linecap="round" stroke-linejoin="round"></path>
                        <path d="M27.3488898,94 L82.7311198,94" id="Shape" stroke="#009EE3" stroke-width="2" stroke-linecap="round" stroke-linejoin="round"></path>
                        <path d="M73.7604509,83.2765997 C73.7604509,79.55704 76.7791998,76.5417411 80.5030154,76.5417411" id="Shape" stroke="#009EE3" stroke-width="2" stroke-linecap="round" stroke-linejoin="round"></path>
                        <path d="M36.4069353,59.9736979 C36.4069353,61.7598935 35.69656,63.4729311 34.4320839,64.7359621 C33.1676078,65.9989931 31.4526102,66.7085565 29.6643709,66.7085565" id="Shape" stroke="#009EE3" stroke-width="2" stroke-linecap="round" stroke-linejoin="round"></path>
                        <path d="M17.8102728,56 L92.648369,56" id="Shape" stroke="#009EE3" stroke-width="2" stroke-linecap="round" stroke-linejoin="round"></path>
                        <ellipse id="Oval" stroke="#009EE3" stroke-width="2" stroke-linecap="round" stroke-linejoin="round" cx="55.3531044" cy="34.430692" rx="13.3395011" ry="13.324256"></ellipse>
                        <path d="M55,39.7811384 L55,28.3333333" id="Shape" stroke="#7FCEF1" stroke-width="2" stroke-linecap="round" stroke-linejoin="round"></path>
                        <polyline id="Shape" stroke="#7FCEF1" stroke-width="2" stroke-linecap="round" stroke-linejoin="round" points="49.5833333 34.53125 55.1244688 40.5750824 60.6656044 34.53125"></polyline>
                    </g>
                </g>
            </g>
        </g>
    </g>
</svg>